<svg width="20" height="20" viewBox="0 0 20 20" fill="none" xmlns="http://www.w3.org/2000/svg">
<g id="chat" clip-path="url(#clip0_2001_3)">
<path id="Vector" d="M10 2.5C4.91406 2.5 1.25 5.80469 1.25 9.375C1.25 10.8242 1.85547 12.1328 2.8125 13.2812C3.01562 13.5273 3.14062 13.8594 3.10156 14.2148C2.98047 15.2695 2.65625 16.2656 2.09766 17.1953C2.07812 17.2305 2.05469 17.2656 2.03515 17.2969C2.46875 17.1836 2.90234 17.0234 3.3125 16.8477C3.97656 16.5586 4.60156 16.1953 5.20312 15.7773C5.53515 15.5469 5.96094 15.4844 6.34375 15.6133C7.53906 16.0195 8.75391 16.25 10 16.25C15.0859 16.25 18.75 12.9453 18.75 9.375C18.75 5.80469 15.0859 2.5 10 2.5ZM-1.26555e-06 9.375C-1.26555e-06 4.89062 4.47266 1.25 10 1.25C15.5273 1.25 20 4.89062 20 9.375C20 13.8594 15.5273 17.5 10 17.5C8.59375 17.5 7.24609 17.2383 5.94531 16.8008C5.9375 16.7969 5.92578 16.8008 5.91797 16.8047C5.25781 17.2617 4.5625 17.668 3.8125 17.9961C2.875 18.4023 1.74609 18.75 0.624999 18.75C0.371092 18.75 0.14453 18.5977 0.0468737 18.3672C-0.0507825 18.1367 0.00390498 17.8672 0.179686 17.6875C0.496092 17.3672 0.773436 16.9766 1.02734 16.5547C1.48437 15.7891 1.75781 14.9688 1.85937 14.0898C1.85937 14.0898 1.85547 14.0859 1.85547 14.082C0.765624 12.7773 -1.26555e-06 11.1953 -1.26555e-06 9.375Z" fill="black"/>
</g>
<defs>
<clipPath id="clip0_2001_3">
<rect width="20" height="20" fill="white"/>
</clipPath>
</defs>
</svg>
