<svg width="20" height="20" viewBox="0 0 20 20" fill="none" xmlns="http://www.w3.org/2000/svg">
<g id="mail">
<path id="Vector" d="M2.5 3.75C1.80859 3.75 1.25 4.30859 1.25 5V6.55859L8.89062 12.1602C9.55078 12.6445 10.4492 12.6445 11.1094 12.1602L18.75 6.55859V5C18.75 4.30859 18.1914 3.75 17.5 3.75H2.5ZM1.25 8.10938V15C1.25 15.6914 1.80859 16.25 2.5 16.25H17.5C18.1914 16.25 18.75 15.6914 18.75 15V8.10938L11.8477 13.168C10.7461 13.9727 9.25 13.9727 8.15234 13.168L1.25 8.10938ZM0 5C0 3.62109 1.12109 2.5 2.5 2.5H17.5C18.8789 2.5 20 3.62109 20 5V15C20 16.3789 18.8789 17.5 17.5 17.5H2.5C1.12109 17.5 0 16.3789 0 15V5Z" fill="black"/>
</g>
</svg>
